HIERARCHY
ROOT Hips
{
  OFFSET 196.326 95.9168 97.7182
  CHANNELS 6 Xposition Yposition Zposition Zrotation Xrotation Yrotation
  JOINT LeftUpLeg
  {
    OFFSET 8.64259 1.95398 -2.38835
    CHANNELS 3 Zrotation Xrotation Yrotation
    JOINT LeftLeg
    {
      OFFSET 43.7702 0 0
      CHANNELS 3 Zrotation Xrotation Yrotation
      JOINT LeftFoot
      {
        OFFSET 40.6238 0 0
        CHANNELS 3 Zrotation Xrotation Yrotation
        JOINT LeftToeBase
        {
          OFFSET 12.7242 0 0
          CHANNELS 3 Zrotation Xrotation Yrotation
          End Site
          {
            OFFSET 0 0 0
          }
        }
      }
    }
  }
  JOINT RightUpLeg
  {
    OFFSET -8.2249 1.95398 -2.59336
    CHANNELS 3 Zrotation Xrotation Yrotation
    JOINT RightLeg
    {
      OFFSET 43.5653 0 0
      CHANNELS 3 Zrotation Xrotation Yrotation
      JOINT RightFoot
      {
        OFFSET 40.6238 0 0
        CHANNELS 3 Zrotation Xrotation Yrotation
        JOINT RightToeBase
        {
          OFFSET 12.7242 0 0
          CHANNELS 3 Zrotation Xrotation Yrotation
          End Site
          {
            OFFSET 0 0 0
          }
        }
      }
    }
  }
  JOINT Spine
  {
    OFFSET 0.165834 0.87714 6.61349
    CHANNELS 3 Zrotation Xrotation Yrotation
    JOINT Spine1
    {
      OFFSET 7.38963 1.71661e-005 0
      CHANNELS 3 Zrotation Xrotation Yrotation
      JOINT Spine2
      {
        OFFSET 11.9445 1.14441e-005 0
        CHANNELS 3 Zrotation Xrotation Yrotation
        JOINT Spine3
        {
          OFFSET 14.7254 4.19617e-005 0
          CHANNELS 3 Zrotation Xrotation Yrotation
          JOINT Spine4
          {
            OFFSET 10.9679 0 0
            CHANNELS 3 Zrotation Xrotation Yrotation
            JOINT RightShoulder
            {
              OFFSET 2.46616 -1.6653 3.69651
              CHANNELS 3 Zrotation Xrotation Yrotation
              JOINT RightArm
              {
                OFFSET 13.0012 0 0
                CHANNELS 3 Zrotation Xrotation Yrotation
                JOINT RightForeArm
                {
                  OFFSET 28.7848 1.52588e-005 0
                  CHANNELS 3 Zrotation Xrotation Yrotation
                  JOINT RightHand
                  {
                    OFFSET 26.5688 1.52588e-005 0
                    CHANNELS 3 Zrotation Xrotation Yrotation
                    End Site
                    {
                      OFFSET 0 0 0
                    }
                  }
                }
              }
            }
            JOINT LeftShoulder
            {
              OFFSET 2.38034 -1.29275 -3.75231
              CHANNELS 3 Zrotation Xrotation Yrotation
              JOINT LeftArm
              {
                OFFSET 16.3182 6.10351e-005 0
                CHANNELS 3 Zrotation Xrotation Yrotation
                JOINT LeftForeArm
                {
                  OFFSET 27.0901 0 0
                  CHANNELS 3 Zrotation Xrotation Yrotation
                  JOINT LeftHand
                  {
                    OFFSET 24.5451 1.52588e-005 0
                    CHANNELS 3 Zrotation Xrotation Yrotation
                    End Site
                    {
                      OFFSET 0 0 0
                    }
                  }
                }
              }
            }
            JOINT Neck
            {
              OFFSET 5.0226 -0.0266342 0
              CHANNELS 3 Zrotation Xrotation Yrotation
              JOINT Head
              {
                OFFSET 6.69363 2.86102e-005 0
                CHANNELS 3 Zrotation Xrotation Yrotation
                End Site
                {
                  OFFSET 0 0 0
                }
              }
            }
          }
        }
      }
    }
  }
}
MOTION
Frames:	14
Frame Time:	0.0416667
-229.245 90.583 -253.132 -91.6914 42.9404 -88.6125 -173.104 -3.05751 95.1565 -40.0644 35.4628 1.51961 49.5841 -3.40272 10.5042 68.01 38.1718 -7.36668 177.001 27.4529 93.1828 -39.4654 10.5192 1.49569 66.6364 -2.59919 -1.38966 30.7561 -0.933884 22.5637 -0.980895 7.31296 -90.0368 12.2503 -1.96671 0.148659 0.580864 -1.95827 0.235098 -21.9657 -1.92044 -0.449508 -1.95306 -1.92043 -0.449516 81.6185 -51.692 -112.87 19.2909 2.74409 22.8684 -7.76085 -8.99728 -32.7181 -5.90272 -0.598019 5.84765 -99.3923 -41.1791 61.4238 -19.6383 -3.10226 7.32846 13.3667 4.55714 -58.7075 14.6054 1.37027 5.38204 10.22 8.75228 -1.63988 -0.917415 9.33845 7.99028 
-224.338 90.6405 -246.754 -91.5874 38.9694 -88.7394 -173.127 -3.99458 94.1478 -34.8813 33.2348 1.96413 57.2959 5.47965 16.8685 77.5565 39.504 -20.1842 176.719 29.2826 90.8264 -32.8392 11.7714 2.28379 59.928 -0.95782 -0.445183 25.1141 -2.33371 21.7572 -1.3139 7.47655 -90.0514 11.9241 -2.63658 0.181639 0.255776 -2.62604 0.297578 -22.3 -2.5692 -0.619698 -2.28737 -2.56919 -0.619706 80.2574 -54.2948 -113.883 18.3853 5.30686 24.4104 -2.58827 1.24988 -30.431 -9.91007 -0.922736 5.94603 -99.3862 -39.9352 60.8917 -17.8645 -2.46301 2.76484 11.3865 4.8828 -53.211 16.0754 1.6473 6.29683 10.4085 7.72979 -3.98733 -0.578095 9.0006 9.8427 
-217.671 91.2548 -239.809 -89.2304 40.061 -93.6974 -172.646 1.12299 88.5769 -31.0767 21.3979 -0.591208 61.2176 10.3498 20.0475 71.8252 33.034 -24.5714 178.758 28.9224 86.5261 -15.4743 7.40471 0.768041 47.384 1.76353 1.83113 24.3707 -2.14383 18.0998 -1.16051 7.49333 -89.6473 11.8973 -2.14157 0.933319 0.227757 -2.09841 1.02669 -22.3212 -2.32299 0.246233 -2.30856 -2.32301 0.24623 78.8502 -55.5112 -115.406 19.3088 3.74885 22.7494 -0.0476046 3.72599 -29.814 -9.0558 -0.677322 3.91326 -99.4772 -39.0486 60.3507 -17.9233 -1.83135 0.951505 9.64221 4.5719 -49.4902 16.6403 1.35635 4.25432 11.0612 7.02766 -5.22117 0.55276 8.71283 9.76454 
-212.781 92.7841 -233.471 -89.8922 43.6793 -93.2421 -172.787 2.83531 86.4974 -26.922 18.1919 -1.40786 63.4586 11.9734 19.6567 58.7093 23.6194 -24.7203 179.697 26.876 86.143 -12.8707 1.56904 -0.59148 48.1251 1.9978 1.98096 40.4796 1.355 15.1077 -0.695242 7.66638 -89.6253 11.5457 -1.20758 0.869604 -0.124989 -1.16815 0.921907 -22.6637 -1.41311 0.466428 -2.6511 -1.4131 0.466434 77.8884 -56.0158 -116.546 19.7851 0.314477 21.079 -2.34487 -1.30375 -34.5867 -7.35028 -0.566318 3.99593 -99.3566 -39.2174 60.6215 -19.9072 0.668923 2.98214 9.12355 4.68311 -48.9179 16.2302 1.35969 4.47061 11.0288 6.99815 -4.35433 1.62619 8.51628 8.9888 
-207.967 94.352 -228.248 -91.4493 45.8016 -90.1381 -172.746 5.42335 87.648 -24.7573 15.7315 -1.16731 61.6153 8.3798 16.888 55.372 20.9086 -26.0373 -179.54 25.7815 87.9885 -27.1781 5.32069 -2.11901 54.3709 -0.209201 0.121811 41.453 1.41326 12.8156 -0.377245 7.76197 -89.8356 11.3513 -0.673921 0.39557 -0.319562 -0.655861 0.424843 -22.8561 -0.761641 0.174727 -2.84343 -0.761663 0.174719 77.2457 -55.4329 -117.665 20.1434 -3.59918 18.7748 -5.07669 -7.57159 -40.2208 -5.94012 -0.48768 3.74801 -99.3085 -39.7099 60.9181 -23.646 3.51456 7.37943 8.8463 5.82138 -46.8015 15.2278 1.30477 4.62712 10.3933 7.14903 -4.0192 1.67963 8.58534 9.16141 
-203.59 95.4123 -224.082 -91.1689 45.5514 -89.8835 -173.057 7.79128 87.9828 -20.4583 16.695 -1.3897 57.954 5.09121 17.5146 56.2506 20.1742 -31.11 178.966 23.4861 87.879 -41.2834 9.0389 -2.61093 53.9739 -0.673221 -0.191614 49.8733 2.74088 11.583 -0.340335 7.57013 -89.9082 11.7344 -0.633703 0.249866 0.0635574 -0.622096 0.277515 -22.4728 -0.679502 0.0478561 -2.46019 -0.679495 0.0478572 78.6487 -53.6723 -116.395 21.1827 -7.45246 15.3866 -7.99066 -11.3367 -45.9164 -8.1009 -0.600923 2.68 -99.5754 -39.9105 60.5785 -28.7363 6.2176 12.3925 6.9662 7.01524 -40.7888 13.3929 0.985257 3.37959 8.94857 7.2938 -3.01953 1.81564 8.44549 8.6235 
-198.927 95.5169 -220.057 -90.8439 44.9974 -89.7794 -172.925 11.5338 88.2576 -19.5313 15.6346 -1.6952 58.5885 4.60799 15.4516 44.5619 12.7901 -31.0488 177.377 19.2373 87.6592 -51.4412 10.1467 -3.07712 55.6455 -1.61372 -0.862375 41.3885 1.49882 14.9241 -0.171807 7.40789 -89.9398 12.0583 -0.312955 0.154475 0.387405 -0.305831 0.168087 -22.148 -0.344932 0.053272 -2.1354 -0.344911 0.0532718 79.9127 -52.9878 -114.859 20.7914 -9.05808 11.9789 -12.6852 -12.258 -52.3378 -8.80363 -0.640739 2.49398 -99.7039 -39.8734 60.3556 -33.1554 8.63644 15.8829 4.92543 9.6443 -33.7042 10.4876 0.700418 2.63963 9.07757 6.49313 -2.74986 0.956071 7.49961 8.02985 
-193.961 94.2509 -216.296 -89.3041 45.5301 -91.3734 -173.155 17.4249 87.8191 -21.5748 15.8692 -2.05193 59.8338 6.01574 16.6228 34.6722 6.5175 -29.7114 177.288 14.1249 86.9449 -55.4115 4.42225 -4.14983 50.2783 0.105151 0.400559 47.1117 2.56505 14.5135 0.21312 7.21928 -89.8314 12.4353 0.503706 0.278286 0.764383 0.515454 0.255839 -21.7711 0.396807 0.416805 -1.75847 0.396775 0.416794 80.9811 -51.4011 -113.908 20.4938 -8.66038 8.6919 -16.7843 -11.5547 -58.4593 -5.81934 -0.476185 1.85433 -99.0852 -39.4755 61.1747 -36.5671 10.0334 17.5992 3.67208 15.2156 -27.2282 10.7303 0.698357 2.48907 10.3633 5.5504 -2.80399 -0.810453 6.48802 8.06869 
-188.272 92.8047 -212.27 -88.002 46.3214 -93.5073 -173.336 24.0022 87.176 -23.8498 13.4834 -2.06966 58.2672 4.03935 14.5825 35.6863 7.16345 -29.5639 177.852 7.76956 86.3484 -52.9807 -4.80934 -5.69847 49.2465 1.53893 1.46703 52.1978 3.24933 12.7008 0.634157 7.14464 -89.649 12.5818 1.42724 0.536102 0.911546 1.44945 0.472748 -21.6274 1.20014 0.940303 -1.61475 1.20015 0.940293 81.313 -49.8781 -113.993 18.6042 -8.4644 4.68924 -19.8958 -12.0415 -61.3795 -5.3808 -0.488499 2.22916 -98.8454 -40.2908 61.9142 -37.5658 7.86216 19.6087 3.16961 14.8044 -24.0311 13.4092 0.920724 2.91018 11.9033 4.42965 -2.13756 -1.81459 5.15194 7.2359 
-181.88 91.9139 -207.522 -87.0814 48.9143 -94.083 -173.667 28.2586 88.4999 -21.2975 10.9307 -1.61624 55.3251 0.734774 11.6786 47.2321 15.8735 -22.408 179.718 2.0477 87.5993 -43.9992 -8.66295 -7.48473 55.9793 0.156151 0.218004 61.4592 6.46046 19.035 1.15046 7.2073 -89.6537 12.4566 2.45079 0.410817 0.787888 2.46649 0.302488 -21.7624 2.21397 1.12871 -1.74973 2.21397 1.12871 81.3652 -47.3004 -114.919 16.9846 -7.58956 0.293403 -20.9984 -13.3399 -60.3257 -6.52785 -0.551153 2.26819 -99.1184 -41.8955 62.159 -37.0767 5.62687 20.3629 3.03718 10.8758 -23.3425 15.9995 1.1835 3.49883 12.1279 3.71191 0.131446 -1.16205 3.84884 5.2917 
-174.799 91.799 -201.862 -86.2189 50.2777 -92.8672 -174.06 30.3704 90.9167 -15.1024 9.5945 -1.13385 59.2415 4.61953 13.2909 52.0676 20.6435 -17.3566 178.788 0.549171 89.3458 -35.3259 -9.22794 -5.37112 76.6261 -6.6556 -3.17133 44.572 2.07148 14.328 1.35005 7.37291 -89.8993 12.1325 2.73138 -0.100966 0.464387 2.72427 -0.221178 -22.0927 2.63534 0.725181 -2.08006 2.63536 0.725176 81.3141 -45.7274 -115.635 14.1868 -7.08508 -4.78721 -19.6508 -14.8684 -57.3226 -6.87818 -0.59502 2.89335 -100.222 -43.7322 61.212 -36.6371 2.64991 19.9001 4.3239 7.11542 -25.1057 13.2964 0.928891 3.02871 12.6747 3.88849 2.35056 -0.225178 3.44675 4.19534 
-168.196 92.9341 -196.447 -86.8223 49.4997 -90.8805 -173.715 27.9044 92.1027 -6.2886 6.47866 -1.00429 59.5247 5.22109 13.8499 52.6044 22.1809 -13.1133 178.547 3.48408 92.8893 -30.9164 4.15772 -2.654 74.6455 -5.51641 -2.65395 48.4375 3.57219 21.3297 1.28349 7.61221 -90.1351 11.6577 2.48975 -0.526349 -0.0110531 2.4642 -0.635486 -22.5653 2.53277 0.246743 -2.55267 2.53276 0.246742 80.9984 -44.796 -116.519 13.0989 -6.25388 -4.83407 -18.6421 -14.67 -56.4274 -8.51681 -0.730819 3.87919 -100.953 -44.2682 60.3205 -36.984 2.03093 17.4628 4.55666 5.53933 -27.6584 17.0661 1.38949 4.32109 13.5528 4.06903 2.92534 0.260652 3.49763 4.61101 
-162.888 94.3442 -192.501 -87.5221 47.0022 -92.2838 -172.331 25.1533 89.9099 -10.309 3.52054 -2.1715 56.9371 3.25122 12.2384 48.6626 18.679 -13.5974 179.195 6.88129 92.0832 -29.5794 6.2863 -3.02548 73.6228 -4.85032 -2.37272 42.263 2.11394 22.4232 0.851579 7.73343 -89.8923 11.4075 1.74464 0.0380268 -0.262311 1.74463 -0.0388269 -22.8059 1.65252 0.560743 -2.7933 1.65254 0.560749 80.3713 -46.7776 -116.653 12.7945 -6.87717 -2.05199 -15.5841 -13.8929 -54.2347 -9.38002 -0.79509 4.19714 -101.536 -43.4576 59.0788 -36.6204 2.53288 16.3307 4.75612 5.338 -31.0645 22.0556 1.62521 3.52421 13.2828 4.26131 1.51705 1.15339 4.09241 4.71687 
-158.803 95.8164 -188.856 -87.3039 44.0196 -93.1003 -170.407 22.9839 88.807 -22.242 1.98082 -2.63277 56.3156 2.98572 11.6361 49.673 19.4978 -13.804 179.126 9.75033 91.3209 -27.3572 5.82573 -2.3759 68.0689 -2.84413 -1.49731 40.5048 1.5373 19.8052 0.558165 7.59381 -89.8257 11.6856 1.19202 0.22252 0.0151449 1.20065 0.16983 -22.5236 1.07002 0.570519 -2.51094 1.07003 0.570523 80.6283 -48.113 -115.711 15.7057 -6.43486 4.79247 -12.4511 -13.34 -50.5114 -9.81311 -0.769124 3.53548 -101.852 -42.4968 58.1637 -34.5444 4.55823 14.874 5.33698 6.95154 -34.8279 23.4389 1.82665 3.98705 11.3759 4.0436 0.563291 1.27516 4.16104 4.90447 
